<svg xmlns="http://www.w3.org/2000/svg" viewBox="0 0 1200 675" width="1200" height="675">
<defs>
<linearGradient id="bg" x1="0" y1="0" x2="1" y2="1">
<stop offset="0" stop-color="#0d1420"/><stop offset="1" stop-color="#0a0e14"/>
</linearGradient>
<linearGradient id="cy" x1="0" y1="0" x2="1" y2="0">
<stop offset="0" stop-color="#38bdf8"/><stop offset="1" stop-color="#818cf8"/>
</linearGradient>
<radialGradient id="glow" cx=".5" cy=".5" r=".5">
<stop offset="0" stop-color="#38bdf8" stop-opacity=".35"/><stop offset="1" stop-color="#38bdf8" stop-opacity="0"/>
</radialGradient>
</defs>
<rect width="1200" height="675" fill="url(#bg)"/>
<g fill="#1f2937" opacity=".55"><circle cx="60" cy="55" r="2"/><circle cx="155" cy="55" r="2"/><circle cx="250" cy="55" r="2"/><circle cx="345" cy="55" r="2"/><circle cx="440" cy="55" r="2"/><circle cx="535" cy="55" r="2"/><circle cx="630" cy="55" r="2"/><circle cx="725" cy="55" r="2"/><circle cx="820" cy="55" r="2"/><circle cx="915" cy="55" r="2"/><circle cx="1010" cy="55" r="2"/><circle cx="1105" cy="55" r="2"/><circle cx="1200" cy="55" r="2"/><circle cx="60" cy="150" r="2"/><circle cx="155" cy="150" r="2"/><circle cx="250" cy="150" r="2"/><circle cx="345" cy="150" r="2"/><circle cx="440" cy="150" r="2"/><circle cx="535" cy="150" r="2"/><circle cx="630" cy="150" r="2"/><circle cx="725" cy="150" r="2"/><circle cx="820" cy="150" r="2"/><circle cx="915" cy="150" r="2"/><circle cx="1010" cy="150" r="2"/><circle cx="1105" cy="150" r="2"/><circle cx="1200" cy="150" r="2"/><circle cx="60" cy="245" r="2"/><circle cx="155" cy="245" r="2"/><circle cx="250" cy="245" r="2"/><circle cx="345" cy="245" r="2"/><circle cx="440" cy="245" r="2"/><circle cx="535" cy="245" r="2"/><circle cx="630" cy="245" r="2"/><circle cx="725" cy="245" r="2"/><circle cx="820" cy="245" r="2"/><circle cx="915" cy="245" r="2"/><circle cx="1010" cy="245" r="2"/><circle cx="1105" cy="245" r="2"/><circle cx="1200" cy="245" r="2"/><circle cx="60" cy="340" r="2"/><circle cx="155" cy="340" r="2"/><circle cx="250" cy="340" r="2"/><circle cx="345" cy="340" r="2"/><circle cx="440" cy="340" r="2"/><circle cx="535" cy="340" r="2"/><circle cx="630" cy="340" r="2"/><circle cx="725" cy="340" r="2"/><circle cx="820" cy="340" r="2"/><circle cx="915" cy="340" r="2"/><circle cx="1010" cy="340" r="2"/><circle cx="1105" cy="340" r="2"/><circle cx="1200" cy="340" r="2"/><circle cx="60" cy="435" r="2"/><circle cx="155" cy="435" r="2"/><circle cx="250" cy="435" r="2"/><circle cx="345" cy="435" r="2"/><circle cx="440" cy="435" r="2"/><circle cx="535" cy="435" r="2"/><circle cx="630" cy="435" r="2"/><circle cx="725" cy="435" r="2"/><circle cx="820" cy="435" r="2"/><circle cx="915" cy="435" r="2"/><circle cx="1010" cy="435" r="2"/><circle cx="1105" cy="435" r="2"/><circle cx="1200" cy="435" r="2"/><circle cx="60" cy="530" r="2"/><circle cx="155" cy="530" r="2"/><circle cx="250" cy="530" r="2"/><circle cx="345" cy="530" r="2"/><circle cx="440" cy="530" r="2"/><circle cx="535" cy="530" r="2"/><circle cx="630" cy="530" r="2"/><circle cx="725" cy="530" r="2"/><circle cx="820" cy="530" r="2"/><circle cx="915" cy="530" r="2"/><circle cx="1010" cy="530" r="2"/><circle cx="1105" cy="530" r="2"/><circle cx="1200" cy="530" r="2"/><circle cx="60" cy="625" r="2"/><circle cx="155" cy="625" r="2"/><circle cx="250" cy="625" r="2"/><circle cx="345" cy="625" r="2"/><circle cx="440" cy="625" r="2"/><circle cx="535" cy="625" r="2"/><circle cx="630" cy="625" r="2"/><circle cx="725" cy="625" r="2"/><circle cx="820" cy="625" r="2"/><circle cx="915" cy="625" r="2"/><circle cx="1010" cy="625" r="2"/><circle cx="1105" cy="625" r="2"/><circle cx="1200" cy="625" r="2"/></g>
<ellipse cx="340" cy="380" rx="300" ry="240" fill="url(#glow)"/>
<circle cx="330" cy="300" r="60" fill="#141b28" stroke="url(#cy)" stroke-width="5"/>
<path d="M230 520 q100 -110 200 0 z" fill="#141b28" stroke="url(#cy)" stroke-width="5"/>
<path d="M395 245 q40 -55 95 -30" stroke="#38bdf8" stroke-width="6" fill="none" stroke-linecap="round"/>
<circle cx="505" cy="205" r="26" fill="none" stroke="#38bdf8" stroke-width="6"/>
<circle cx="505" cy="205" r="8" fill="#38bdf8"/>
<g stroke="#818cf8" stroke-width="7" stroke-linecap="round" fill="none">
<path d="M1020 500 q-70 10 -120 -35"/><path d="M1035 380 q-90 -5 -140 40"/>
</g>
<rect x="640" y="180" width="380" height="300" rx="18" fill="#141b28" stroke="#1f2937" stroke-width="3"/>
<g fill="#38bdf8"><rect x="680" y="225" width="220" height="16" rx="8"/><rect x="680" y="265" width="300" height="16" rx="8" opacity=".85"/><rect x="680" y="305" width="260" height="16" rx="8" opacity=".7"/></g>
<g fill="#818cf8" opacity=".9"><rect x="680" y="345" width="290" height="16" rx="8"/><rect x="680" y="385" width="180" height="16" rx="8"/></g>
<rect x="905" y="222" width="70" height="22" rx="6" fill="none" stroke="#38bdf8" stroke-width="3" transform="rotate(12 940 233)"/>
<path d="M888 430 l14 14 l26 -30" stroke="#34d399" stroke-width="8" fill="none" stroke-linecap="round" stroke-linejoin="round"/>
</svg>