<svg xmlns="http://www.w3.org/2000/svg" viewBox="0 0 1200 675" width="1200" height="675">
<defs>
<linearGradient id="bg" x1="0" y1="0" x2="1" y2="1">
<stop offset="0" stop-color="#0d1420"/><stop offset="1" stop-color="#0a0e14"/>
</linearGradient>
<linearGradient id="cy" x1="0" y1="0" x2="1" y2="0">
<stop offset="0" stop-color="#38bdf8"/><stop offset="1" stop-color="#818cf8"/>
</linearGradient>
<radialGradient id="glow" cx=".5" cy=".5" r=".5">
<stop offset="0" stop-color="#38bdf8" stop-opacity=".35"/><stop offset="1" stop-color="#38bdf8" stop-opacity="0"/>
</radialGradient>
</defs>
<rect width="1200" height="675" fill="url(#bg)"/>
<g fill="#1f2937" opacity=".55"><circle cx="60" cy="55" r="2"/><circle cx="155" cy="55" r="2"/><circle cx="250" cy="55" r="2"/><circle cx="345" cy="55" r="2"/><circle cx="440" cy="55" r="2"/><circle cx="535" cy="55" r="2"/><circle cx="630" cy="55" r="2"/><circle cx="725" cy="55" r="2"/><circle cx="820" cy="55" r="2"/><circle cx="915" cy="55" r="2"/><circle cx="1010" cy="55" r="2"/><circle cx="1105" cy="55" r="2"/><circle cx="1200" cy="55" r="2"/><circle cx="60" cy="150" r="2"/><circle cx="155" cy="150" r="2"/><circle cx="250" cy="150" r="2"/><circle cx="345" cy="150" r="2"/><circle cx="440" cy="150" r="2"/><circle cx="535" cy="150" r="2"/><circle cx="630" cy="150" r="2"/><circle cx="725" cy="150" r="2"/><circle cx="820" cy="150" r="2"/><circle cx="915" cy="150" r="2"/><circle cx="1010" cy="150" r="2"/><circle cx="1105" cy="150" r="2"/><circle cx="1200" cy="150" r="2"/><circle cx="60" cy="245" r="2"/><circle cx="155" cy="245" r="2"/><circle cx="250" cy="245" r="2"/><circle cx="345" cy="245" r="2"/><circle cx="440" cy="245" r="2"/><circle cx="535" cy="245" r="2"/><circle cx="630" cy="245" r="2"/><circle cx="725" cy="245" r="2"/><circle cx="820" cy="245" r="2"/><circle cx="915" cy="245" r="2"/><circle cx="1010" cy="245" r="2"/><circle cx="1105" cy="245" r="2"/><circle cx="1200" cy="245" r="2"/><circle cx="60" cy="340" r="2"/><circle cx="155" cy="340" r="2"/><circle cx="250" cy="340" r="2"/><circle cx="345" cy="340" r="2"/><circle cx="440" cy="340" r="2"/><circle cx="535" cy="340" r="2"/><circle cx="630" cy="340" r="2"/><circle cx="725" cy="340" r="2"/><circle cx="820" cy="340" r="2"/><circle cx="915" cy="340" r="2"/><circle cx="1010" cy="340" r="2"/><circle cx="1105" cy="340" r="2"/><circle cx="1200" cy="340" r="2"/><circle cx="60" cy="435" r="2"/><circle cx="155" cy="435" r="2"/><circle cx="250" cy="435" r="2"/><circle cx="345" cy="435" r="2"/><circle cx="440" cy="435" r="2"/><circle cx="535" cy="435" r="2"/><circle cx="630" cy="435" r="2"/><circle cx="725" cy="435" r="2"/><circle cx="820" cy="435" r="2"/><circle cx="915" cy="435" r="2"/><circle cx="1010" cy="435" r="2"/><circle cx="1105" cy="435" r="2"/><circle cx="1200" cy="435" r="2"/><circle cx="60" cy="530" r="2"/><circle cx="155" cy="530" r="2"/><circle cx="250" cy="530" r="2"/><circle cx="345" cy="530" r="2"/><circle cx="440" cy="530" r="2"/><circle cx="535" cy="530" r="2"/><circle cx="630" cy="530" r="2"/><circle cx="725" cy="530" r="2"/><circle cx="820" cy="530" r="2"/><circle cx="915" cy="530" r="2"/><circle cx="1010" cy="530" r="2"/><circle cx="1105" cy="530" r="2"/><circle cx="1200" cy="530" r="2"/><circle cx="60" cy="625" r="2"/><circle cx="155" cy="625" r="2"/><circle cx="250" cy="625" r="2"/><circle cx="345" cy="625" r="2"/><circle cx="440" cy="625" r="2"/><circle cx="535" cy="625" r="2"/><circle cx="630" cy="625" r="2"/><circle cx="725" cy="625" r="2"/><circle cx="820" cy="625" r="2"/><circle cx="915" cy="625" r="2"/><circle cx="1010" cy="625" r="2"/><circle cx="1105" cy="625" r="2"/><circle cx="1200" cy="625" r="2"/></g>
<ellipse cx="420" cy="340" rx="330" ry="260" fill="url(#glow)"/>
<g stroke="#1e3a5f" stroke-width="6"><line x1="120" y1="560" x2="1080" y2="560"/><line x1="120" y1="620" x2="1080" y2="620"/></g>
<g fill="#38bdf8" opacity=".55"><circle cx="170" cy="590" r="7"/><circle cx="260" cy="590" r="7"/><circle cx="350" cy="590" r="7"/><circle cx="440" cy="590" r="7"/><circle cx="530" cy="590" r="7"/><circle cx="620" cy="590" r="7"/><circle cx="710" cy="590" r="7"/><circle cx="800" cy="590" r="7"/><circle cx="890" cy="590" r="7"/><circle cx="980" cy="590" r="7"/><circle cx="1070" cy="590" r="7"/></g>
<circle cx="380" cy="300" r="150" fill="#141b28" stroke="url(#cy)" stroke-width="10"/>
<rect x="355" y="115" width="50" height="34" rx="8" fill="url(#cy)"/>
<line x1="380" y1="300" x2="380" y2="195" stroke="#38bdf8" stroke-width="9" stroke-linecap="round"/>
<line x1="380" y1="300" x2="455" y2="330" stroke="#818cf8" stroke-width="9" stroke-linecap="round"/>
<circle cx="380" cy="300" r="14" fill="#38bdf8"/>
<path d="M600 460 L720 380 L820 410 L960 250" stroke="url(#cy)" stroke-width="10" fill="none" stroke-linecap="round" stroke-linejoin="round"/>
<g fill="#0a0e14" stroke="#38bdf8" stroke-width="5">
<circle cx="720" cy="380" r="13"/><circle cx="820" cy="410" r="13"/>
</g>
<g stroke="#f59e0b" stroke-width="6" stroke-linecap="round">
<path d="M960 250 l0 -46 M960 250 l40 -24 M960 250 l-40 -24 M960 250 l24 40 M960 250 l-24 40"/>
</g>
<circle cx="960" cy="250" r="17" fill="#f59e0b"/>
</svg>