<svg xmlns="http://www.w3.org/2000/svg" viewBox="0 0 1200 675" width="1200" height="675">
<defs>
<linearGradient id="bg" x1="0" y1="0" x2="1" y2="1">
<stop offset="0" stop-color="#0d1420"/><stop offset="1" stop-color="#0a0e14"/>
</linearGradient>
<linearGradient id="cy" x1="0" y1="0" x2="1" y2="0">
<stop offset="0" stop-color="#38bdf8"/><stop offset="1" stop-color="#818cf8"/>
</linearGradient>
<radialGradient id="glow" cx=".5" cy=".5" r=".5">
<stop offset="0" stop-color="#38bdf8" stop-opacity=".35"/><stop offset="1" stop-color="#38bdf8" stop-opacity="0"/>
</radialGradient>
</defs>
<rect width="1200" height="675" fill="url(#bg)"/>
<g fill="#1f2937" opacity=".55"><circle cx="60" cy="55" r="2"/><circle cx="155" cy="55" r="2"/><circle cx="250" cy="55" r="2"/><circle cx="345" cy="55" r="2"/><circle cx="440" cy="55" r="2"/><circle cx="535" cy="55" r="2"/><circle cx="630" cy="55" r="2"/><circle cx="725" cy="55" r="2"/><circle cx="820" cy="55" r="2"/><circle cx="915" cy="55" r="2"/><circle cx="1010" cy="55" r="2"/><circle cx="1105" cy="55" r="2"/><circle cx="1200" cy="55" r="2"/><circle cx="60" cy="150" r="2"/><circle cx="155" cy="150" r="2"/><circle cx="250" cy="150" r="2"/><circle cx="345" cy="150" r="2"/><circle cx="440" cy="150" r="2"/><circle cx="535" cy="150" r="2"/><circle cx="630" cy="150" r="2"/><circle cx="725" cy="150" r="2"/><circle cx="820" cy="150" r="2"/><circle cx="915" cy="150" r="2"/><circle cx="1010" cy="150" r="2"/><circle cx="1105" cy="150" r="2"/><circle cx="1200" cy="150" r="2"/><circle cx="60" cy="245" r="2"/><circle cx="155" cy="245" r="2"/><circle cx="250" cy="245" r="2"/><circle cx="345" cy="245" r="2"/><circle cx="440" cy="245" r="2"/><circle cx="535" cy="245" r="2"/><circle cx="630" cy="245" r="2"/><circle cx="725" cy="245" r="2"/><circle cx="820" cy="245" r="2"/><circle cx="915" cy="245" r="2"/><circle cx="1010" cy="245" r="2"/><circle cx="1105" cy="245" r="2"/><circle cx="1200" cy="245" r="2"/><circle cx="60" cy="340" r="2"/><circle cx="155" cy="340" r="2"/><circle cx="250" cy="340" r="2"/><circle cx="345" cy="340" r="2"/><circle cx="440" cy="340" r="2"/><circle cx="535" cy="340" r="2"/><circle cx="630" cy="340" r="2"/><circle cx="725" cy="340" r="2"/><circle cx="820" cy="340" r="2"/><circle cx="915" cy="340" r="2"/><circle cx="1010" cy="340" r="2"/><circle cx="1105" cy="340" r="2"/><circle cx="1200" cy="340" r="2"/><circle cx="60" cy="435" r="2"/><circle cx="155" cy="435" r="2"/><circle cx="250" cy="435" r="2"/><circle cx="345" cy="435" r="2"/><circle cx="440" cy="435" r="2"/><circle cx="535" cy="435" r="2"/><circle cx="630" cy="435" r="2"/><circle cx="725" cy="435" r="2"/><circle cx="820" cy="435" r="2"/><circle cx="915" cy="435" r="2"/><circle cx="1010" cy="435" r="2"/><circle cx="1105" cy="435" r="2"/><circle cx="1200" cy="435" r="2"/><circle cx="60" cy="530" r="2"/><circle cx="155" cy="530" r="2"/><circle cx="250" cy="530" r="2"/><circle cx="345" cy="530" r="2"/><circle cx="440" cy="530" r="2"/><circle cx="535" cy="530" r="2"/><circle cx="630" cy="530" r="2"/><circle cx="725" cy="530" r="2"/><circle cx="820" cy="530" r="2"/><circle cx="915" cy="530" r="2"/><circle cx="1010" cy="530" r="2"/><circle cx="1105" cy="530" r="2"/><circle cx="1200" cy="530" r="2"/><circle cx="60" cy="625" r="2"/><circle cx="155" cy="625" r="2"/><circle cx="250" cy="625" r="2"/><circle cx="345" cy="625" r="2"/><circle cx="440" cy="625" r="2"/><circle cx="535" cy="625" r="2"/><circle cx="630" cy="625" r="2"/><circle cx="725" cy="625" r="2"/><circle cx="820" cy="625" r="2"/><circle cx="915" cy="625" r="2"/><circle cx="1010" cy="625" r="2"/><circle cx="1105" cy="625" r="2"/><circle cx="1200" cy="625" r="2"/></g>
<ellipse cx="600" cy="360" rx="380" ry="270" fill="url(#glow)"/>
<rect x="150" y="200" width="240" height="330" rx="26" fill="#141b28" stroke="#1f2937" stroke-width="4"/>
<rect x="175" y="240" width="190" height="200" rx="10" fill="#0f1520" stroke="#38bdf8" stroke-width="4"/>
<g fill="#334155"><rect x="192" y="262" width="150" height="10" rx="5"/><rect x="192" y="284" width="120" height="10" rx="5"/><rect x="192" y="306" width="150" height="10" rx="5"/></g>
<rect x="192" y="328" width="150" height="12" rx="6" fill="#38bdf8"/>
<g fill="#334155"><rect x="192" y="352" width="130" height="10" rx="5"/><rect x="192" y="374" width="150" height="10" rx="5"/></g>
<circle cx="270" cy="480" r="20" fill="none" stroke="#38bdf8" stroke-width="5"/>
<g stroke="url(#cy)" stroke-width="10" fill="none" stroke-linecap="round">
<path d="M430 360 h180"/><path d="M575 325 l45 35 l-45 35"/>
</g>
<rect x="680" y="170" width="380" height="380" rx="26" fill="#141b28" stroke="url(#cy)" stroke-width="8"/>
<circle cx="870" cy="360" r="105" fill="none" stroke="#818cf8" stroke-width="10"/>
<circle cx="870" cy="360" r="60" fill="none" stroke="#38bdf8" stroke-width="8"/>
<g stroke="#38bdf8" stroke-width="8" stroke-linecap="round">
<line x1="870" y1="255" x2="870" y2="225"/><line x1="870" y1="465" x2="870" y2="495"/>
<line x1="765" y1="360" x2="735" y2="360"/><line x1="975" y1="360" x2="1005" y2="360"/>
</g>
<circle cx="870" cy="360" r="20" fill="#38bdf8"/>
</svg>