<svg xmlns="http://www.w3.org/2000/svg" viewBox="0 0 1200 675" width="1200" height="675">
<defs>
<linearGradient id="bg" x1="0" y1="0" x2="1" y2="1">
<stop offset="0" stop-color="#0d1420"/><stop offset="1" stop-color="#0a0e14"/>
</linearGradient>
<linearGradient id="cy" x1="0" y1="0" x2="1" y2="0">
<stop offset="0" stop-color="#38bdf8"/><stop offset="1" stop-color="#818cf8"/>
</linearGradient>
<radialGradient id="glow" cx=".5" cy=".5" r=".5">
<stop offset="0" stop-color="#38bdf8" stop-opacity=".35"/><stop offset="1" stop-color="#38bdf8" stop-opacity="0"/>
</radialGradient>
</defs>
<rect width="1200" height="675" fill="url(#bg)"/>
<g fill="#1f2937" opacity=".55"><circle cx="60" cy="55" r="2"/><circle cx="155" cy="55" r="2"/><circle cx="250" cy="55" r="2"/><circle cx="345" cy="55" r="2"/><circle cx="440" cy="55" r="2"/><circle cx="535" cy="55" r="2"/><circle cx="630" cy="55" r="2"/><circle cx="725" cy="55" r="2"/><circle cx="820" cy="55" r="2"/><circle cx="915" cy="55" r="2"/><circle cx="1010" cy="55" r="2"/><circle cx="1105" cy="55" r="2"/><circle cx="1200" cy="55" r="2"/><circle cx="60" cy="150" r="2"/><circle cx="155" cy="150" r="2"/><circle cx="250" cy="150" r="2"/><circle cx="345" cy="150" r="2"/><circle cx="440" cy="150" r="2"/><circle cx="535" cy="150" r="2"/><circle cx="630" cy="150" r="2"/><circle cx="725" cy="150" r="2"/><circle cx="820" cy="150" r="2"/><circle cx="915" cy="150" r="2"/><circle cx="1010" cy="150" r="2"/><circle cx="1105" cy="150" r="2"/><circle cx="1200" cy="150" r="2"/><circle cx="60" cy="245" r="2"/><circle cx="155" cy="245" r="2"/><circle cx="250" cy="245" r="2"/><circle cx="345" cy="245" r="2"/><circle cx="440" cy="245" r="2"/><circle cx="535" cy="245" r="2"/><circle cx="630" cy="245" r="2"/><circle cx="725" cy="245" r="2"/><circle cx="820" cy="245" r="2"/><circle cx="915" cy="245" r="2"/><circle cx="1010" cy="245" r="2"/><circle cx="1105" cy="245" r="2"/><circle cx="1200" cy="245" r="2"/><circle cx="60" cy="340" r="2"/><circle cx="155" cy="340" r="2"/><circle cx="250" cy="340" r="2"/><circle cx="345" cy="340" r="2"/><circle cx="440" cy="340" r="2"/><circle cx="535" cy="340" r="2"/><circle cx="630" cy="340" r="2"/><circle cx="725" cy="340" r="2"/><circle cx="820" cy="340" r="2"/><circle cx="915" cy="340" r="2"/><circle cx="1010" cy="340" r="2"/><circle cx="1105" cy="340" r="2"/><circle cx="1200" cy="340" r="2"/><circle cx="60" cy="435" r="2"/><circle cx="155" cy="435" r="2"/><circle cx="250" cy="435" r="2"/><circle cx="345" cy="435" r="2"/><circle cx="440" cy="435" r="2"/><circle cx="535" cy="435" r="2"/><circle cx="630" cy="435" r="2"/><circle cx="725" cy="435" r="2"/><circle cx="820" cy="435" r="2"/><circle cx="915" cy="435" r="2"/><circle cx="1010" cy="435" r="2"/><circle cx="1105" cy="435" r="2"/><circle cx="1200" cy="435" r="2"/><circle cx="60" cy="530" r="2"/><circle cx="155" cy="530" r="2"/><circle cx="250" cy="530" r="2"/><circle cx="345" cy="530" r="2"/><circle cx="440" cy="530" r="2"/><circle cx="535" cy="530" r="2"/><circle cx="630" cy="530" r="2"/><circle cx="725" cy="530" r="2"/><circle cx="820" cy="530" r="2"/><circle cx="915" cy="530" r="2"/><circle cx="1010" cy="530" r="2"/><circle cx="1105" cy="530" r="2"/><circle cx="1200" cy="530" r="2"/><circle cx="60" cy="625" r="2"/><circle cx="155" cy="625" r="2"/><circle cx="250" cy="625" r="2"/><circle cx="345" cy="625" r="2"/><circle cx="440" cy="625" r="2"/><circle cx="535" cy="625" r="2"/><circle cx="630" cy="625" r="2"/><circle cx="725" cy="625" r="2"/><circle cx="820" cy="625" r="2"/><circle cx="915" cy="625" r="2"/><circle cx="1010" cy="625" r="2"/><circle cx="1105" cy="625" r="2"/><circle cx="1200" cy="625" r="2"/></g>
<ellipse cx="600" cy="380" rx="400" ry="260" fill="url(#glow)"/>
<path d="M80 520 q260 -90 520 0 q260 90 520 0" stroke="#1e3a5f" stroke-width="10" fill="none"/>
<g stroke="#38bdf8" stroke-width="5" stroke-dasharray="2 26" stroke-linecap="round">
<path d="M80 520 q260 -90 520 0 q260 90 520 0" fill="none"/>
</g>
<rect x="380" y="330" width="300" height="120" rx="26" fill="#141b28" stroke="url(#cy)" stroke-width="7"/>
<rect x="420" y="355" width="90" height="52" rx="9" fill="#0f1520" stroke="#38bdf8" stroke-width="4"/>
<rect x="540" y="355" width="90" height="52" rx="9" fill="#0f1520" stroke="#38bdf8" stroke-width="4"/>
<circle cx="450" cy="465" r="30" fill="#0a0e14" stroke="#818cf8" stroke-width="8"/>
<circle cx="610" cy="465" r="30" fill="#0a0e14" stroke="#818cf8" stroke-width="8"/>
<path d="M240 260 a55 55 0 1 1 110 0 q0 42 -55 95 q-55 -53 -55 -95" fill="#141b28" stroke="#38bdf8" stroke-width="6"/>
<circle cx="295" cy="258" r="20" fill="#38bdf8"/>
<g stroke="#f59e0b" stroke-width="6" fill="none" stroke-linecap="round">
<path d="M860 300 a45 45 0 1 1 -2 -6 z"/><path d="M860 255 v-30"/>
</g>
<g stroke="#38bdf8" stroke-width="4" fill="none" opacity=".8">
<path d="M950 420 q22 14 44 0 q22 -14 44 0"/><path d="M950 450 q22 14 44 0 q22 -14 44 0"/>
</g>
</svg>